<svg width="400.99999999999994" height="75" xmlns="http://www.w3.org/2000/svg" xml:space="preserve" version="1.1">

 <g>
  <title>Layer 1</title>
  <rect id="svg_1" fill="#ED6B1E" height="9" width="40.1" class="st0" y="32.8" x="40.1"/>
  <path id="svg_2" fill="#ED6B1E" d="m100.2,0l-26.5,0l6.4,9.1l19.4,5.9c3.6,1.1 5.9,4.5 5.8,8c0,0 0,0 0,0l0,29c0,0 0,0 0,0c0,3.6 -2.3,6.9 -5.8,8l-19.3,5.9l-6.5,9.1l26.5,0c11.1,0 20,-9 20,-20l0,-35c0.1,-11 -8.9,-20 -20,-20" class="st0"/>
  <path id="svg_3" fill="#ED6B1E" d="m20,0l26.5,0l-6.4,9.1l-19.3,5.9c-3.6,1.1 -5.9,4.5 -5.8,8c0,0 0,0 0,0l0,29c0,0 0,0 0,0c0,3.6 2.3,6.9 5.8,8l19.3,5.9l6.4,9.1l-26.5,0c-11,0 -20,-9 -20,-20l0,-35c0,-11 9,-20 20,-20" class="st0"/>
  <g stroke="null" id="svg_17">
   <path stroke="null" id="svg_4" fill="#ED6B1E" d="m311.268,44.38624c0,3.84782 -3.13745,6.92607 -7.04447,6.92607c-3.90701,0 -7.04447,-3.13745 -7.04447,-6.92607l0,-16.9896c0,-3.84782 3.13745,-6.92607 7.04447,-6.92607c3.84782,0 7.04447,3.13745 7.04447,6.92607l0,0.17759l5.38694,0l0,-0.23679c0,-6.68928 -5.56454,-12.19462 -12.43141,-12.19462s-12.43141,5.50534 -12.43141,12.25382l0,16.9304c0,6.74848 5.56454,12.25382 12.43141,12.25382c6.80768,0 12.37221,-5.50534 12.43141,-12.25382l0,-0.17759l-5.38694,0l0,0.23679z" class="st0"/>
   <path stroke="null" id="svg_5" fill="#ED6B1E" d="m339.20908,26.0943c-5.68293,0 -10.41871,4.43979 -10.6555,10.06352l0,10.41871c0.29599,5.62373 4.97256,10.06352 10.6555,10.06352c5.68293,0 10.35951,-4.43979 10.6555,-10.06352l0,-10.41871c-0.23679,-5.62373 -4.91337,-10.06352 -10.6555,-10.06352m5.26855,19.83106c-0.0592,2.95986 -2.36789,5.26855 -5.26855,5.26855c-2.90066,0 -5.20935,-2.30869 -5.26855,-5.26855l0,-9.17557c0,-2.90066 2.36789,-5.26855 5.26855,-5.26855c2.90066,0 5.26855,2.36789 5.26855,5.26855l0,9.17557z" class="st0"/>
   <rect stroke="null" id="svg_6" fill="#ED6B1E" height="40.84607" width="5.38694" class="st0" y="15.14282" x="319.31882"/>
   <rect stroke="null" id="svg_7" fill="#ED6B1E" height="29.83539" width="5.38694" class="st0" y="26.0943" x="171.50342"/>
   <rect stroke="null" id="svg_8" fill="#ED6B1E" height="40.84607" width="5.38694" class="st0" y="15.14282" x="160.78873"/>
   <path stroke="null" id="svg_9" fill="#ED6B1E" d="m147.23257,15.14282l-6.57089,0l-10.83309,40.78687l0,0.0592l5.32775,0l2.90066,-10.83309l11.83944,0.0592l2.84147,10.77389l0,0.0592l5.32775,0l-10.83309,-40.90526l0,0zm1.24314,24.68523l-8.99797,0l4.49899,-16.9304l4.49899,16.9304z" class="st0"/>
   <path stroke="null" id="svg_10" fill="#ED6B1E" d="m369.69564,46.51733c0,2.90066 -2.36789,5.26855 -5.26855,5.26855c-2.90066,0 -5.26855,-2.36789 -5.26855,-5.26855l0,-20.42303l-5.38694,0l0,21.31099c0,5.09096 4.1438,9.23476 9.23476,9.23476c0.94716,0 1.83511,-0.11839 2.72307,-0.41438c0.53277,-0.17759 1.00635,-0.35518 1.47993,-0.59197c0.82876,-0.41438 1.59832,-0.94716 2.24949,-1.59832l0.23679,-0.23679l0,2.1903l5.38694,0l0,-29.89458l-5.38694,0l0,20.42303z" class="st0"/>
   <rect stroke="null" id="svg_11" fill="#ED6B1E" height="5.38694" width="5.38694" class="st0" y="15.14282" x="171.50342"/>
   <path stroke="null" id="svg_12" fill="#ED6B1E" d="m194.29434,26.0943c-2.42709,0 -4.73578,0.94716 -6.45249,2.66387l-0.23679,0.23679l0,-13.85214l-5.38694,0l0,40.84607l5.38694,0l0,-2.1903l0.23679,0.23679c1.71672,1.71672 4.02541,2.66387 6.45249,2.66387c5.09096,0 9.23476,-4.1438 9.23476,-9.23476l0,-12.13543c0,-5.15016 -4.1438,-9.23476 -9.23476,-9.23476m3.90701,10.18192l0,10.12272c0,2.90066 -2.36789,5.32775 -5.32775,5.32775c-2.90066,0 -5.32775,-2.36789 -5.32775,-5.32775l0,-10.12272c0,-2.90066 2.36789,-5.32775 5.32775,-5.32775c2.95986,0.0592 5.32775,2.42709 5.32775,5.32775" class="st0"/>
   <path stroke="null" id="svg_13" fill="#ED6B1E" d="m244.25678,26.0351c-2.42709,0 -4.73578,0.94716 -6.45249,2.66387l-0.23679,0.23679l0,-13.79295l-5.38694,0l0,40.84607l5.38694,0l0,-2.1903l0.23679,0.23679c1.71672,1.71672 4.02541,2.66387 6.45249,2.66387c5.09096,0 9.23476,-4.1438 9.23476,-9.23476l0,-12.19462c0,-5.09096 -4.1438,-9.23476 -9.23476,-9.23476m3.90701,10.24112l0,10.12272c0,2.90066 -2.36789,5.32775 -5.32775,5.32775c-2.90066,0 -5.32775,-2.36789 -5.32775,-5.32775l0,-10.12272c0,-2.90066 2.36789,-5.32775 5.32775,-5.32775c2.95986,0 5.32775,2.42709 5.32775,5.32775" class="st0"/>
   <path stroke="null" id="svg_14" fill="#ED6B1E" d="m394.91364,15.14282l0,13.79295l-0.23679,-0.23679c-1.71672,-1.71672 -4.02541,-2.66387 -6.45249,-2.66387c-5.09096,0 -9.23476,4.1438 -9.23476,9.23476l0,12.07623l0,0.0592c0,5.09096 4.1438,9.17557 9.23476,9.17557c2.42709,0 4.73578,-0.94716 6.45249,-2.66387l0.23679,-0.23679l0,2.1903l5.38694,0l0,-40.72767l-5.38694,0zm-0.0592,21.1334l0,10.12272c0,2.90066 -2.36789,5.32775 -5.32775,5.32775c-2.90066,0 -5.32775,-2.36789 -5.32775,-5.32775l0,-10.12272c0,-2.90066 2.36789,-5.32775 5.32775,-5.32775c2.95986,0 5.32775,2.42709 5.32775,5.32775" class="st0"/>
   <path stroke="null" id="svg_15" fill="#ED6B1E" d="m228.33273,36.21702c0,-0.29599 -0.0592,-0.65117 -0.11839,-1.06555l0,-0.11839c-0.29599,-1.59832 -0.88796,-3.13745 -1.83511,-4.49899c-1.89431,-2.66387 -4.79497,-4.2622 -7.99162,-4.43979c-0.0592,0 -0.41438,0 -0.59197,0c-2.48628,0 -4.91337,0.88796 -6.86687,2.48628c-1.89431,1.59832 -3.19665,3.78862 -3.67023,6.2749l0,0.0592l5.26855,0l0,-0.0592c0.47358,-2.48628 2.66387,-4.2622 5.15016,-4.2622c1.36154,0 2.66387,0.53277 3.67023,1.47993c1.00635,0.94716 1.53913,2.24949 1.59832,3.61103l0,2.48628l-7.63644,0c-5.09096,0 -9.23476,4.1438 -9.23476,9.23476c0,4.2622 2.95986,7.87323 6.92607,8.93878c0.0592,0 0.11839,0 0.11839,0.0592c0.17759,0.0592 0.35518,0.0592 0.53277,0.11839c0.17759,0.0592 0.41438,0.0592 0.65117,0.11839c0.0592,0 0.0592,0 0.11839,0c0.41438,0.0592 0.88796,0.0592 1.42073,0.0592c1.30234,0 2.42709,-0.17759 3.19665,-0.47358c1.36154,-0.41438 2.60468,-1.18394 3.67023,-2.1903l0.23679,-0.23679l0,2.1903l5.38694,0l0,-3.55183l0,-16.22003zm-11.95783,5.97892l6.51169,0l0,3.78862c0,2.84147 -2.0719,5.32775 -4.85417,5.86052c-0.41438,0.11839 -0.82876,0.11839 -1.18394,0.11839c-0.94716,0 -1.83511,-0.23679 -2.72307,-0.76956c-0.23679,-0.11839 -0.47358,-0.29599 -0.71037,-0.41438c-0.29599,-0.23679 -0.59197,-0.53277 -0.82876,-0.82876l-0.0592,-0.0592c-0.65117,-0.82876 -1.00635,-1.83511 -1.00635,-2.90066c0.0592,-2.66387 2.1903,-4.79497 4.85417,-4.79497" class="st0"/>
   <path stroke="null" id="svg_16" fill="#ED6B1E" d="m278.35436,36.21702c0,-0.29599 -0.0592,-0.65117 -0.11839,-1.06555l0,-0.11839c-0.29599,-1.59832 -0.88796,-3.13745 -1.83511,-4.49899c-1.89431,-2.66387 -4.79497,-4.2622 -7.99162,-4.43979c-0.0592,0 -0.41438,0 -0.59197,0c-2.48628,0 -4.91337,0.88796 -6.86687,2.48628c-1.89431,1.59832 -3.19665,3.78862 -3.67023,6.2749l0,0.0592l5.26855,0l0,-0.0592c0.47358,-2.48628 2.66387,-4.2622 5.15016,-4.2622c1.36154,0 2.66387,0.53277 3.67023,1.47993c1.00635,0.94716 1.53913,2.24949 1.59832,3.61103l0,2.48628l-7.63644,0c-5.09096,0 -9.23476,4.1438 -9.23476,9.23476c0,4.2622 2.95986,7.87323 6.92607,8.93878c0.0592,0 0.11839,0 0.11839,0.0592c0.17759,0.0592 0.35518,0.0592 0.53277,0.11839c0.17759,0.0592 0.41438,0.0592 0.65117,0.11839c0.0592,0 0.0592,0 0.11839,0c0.41438,0.0592 0.88796,0.0592 1.42073,0.0592c1.30234,0 2.42709,-0.17759 3.19665,-0.47358c1.36154,-0.41438 2.60468,-1.18394 3.67023,-2.1903l0.23679,-0.23679l0,2.1903l5.38694,0l0,-3.55183l0,-16.22003zm-11.95783,5.97892l6.51169,0l0,3.78862c0,2.84147 -2.0719,5.32775 -4.85417,5.86052c-0.41438,0.11839 -0.82876,0.11839 -1.18394,0.11839c-0.94716,0 -1.83511,-0.23679 -2.72307,-0.76956c-0.23679,-0.11839 -0.47358,-0.29599 -0.71037,-0.41438c-0.29599,-0.23679 -0.59197,-0.53277 -0.82876,-0.82876l-0.0592,-0.0592c-0.65117,-0.82876 -1.00635,-1.83511 -1.00635,-2.90066c0.0592,-2.60468 2.1903,-4.79497 4.85417,-4.79497" class="st0"/>
  </g>
 </g>
</svg>