<svg width="1050" height="280" xmlns="http://www.w3.org/2000/svg">
 <!-- Created with Method Draw - http://github.com/duopixel/Method-Draw/ -->

 <g>
  <title>background</title>
  <rect fill="#ffffff" id="canvas_background" height="282" width="1052" y="-1" x="-1"/>
  <g display="none" overflow="visible" y="0" x="0" height="100%" width="100%" id="canvasGrid">
   <rect fill="url(#gridpattern)" stroke-width="0" y="1" x="1" height="1200" width="1600"/>
  </g>
 </g>
 <g>
  <title>Layer 1</title>
  <g stroke="null" id="svg_22">
   <path stroke="null" id="svg_21" d="m730.206181,208.759591l-9.477608,0l0,-104.637917l31.954908,0c26.095441,0 35.028727,15.048905 35.028727,31.378567s-8.965305,31.378567 -35.028727,31.378567l-22.445281,0l0,41.880782l-0.032019,0zm0.032019,-50.653973l23.69402,0a20.556164,20.556164 0 0 0 23.469888,-22.573357a20.556164,20.556164 0 0 0 -23.437869,-22.605376l-23.726039,0l0,45.178733zm92.246584,-11.84701a61.252244,61.252244 0 0 0 -20.908372,3.522084l0,-8.388964a56.22527,56.22527 0 0 1 20.908372,-3.778236c20.940391,0 26.383612,9.509627 26.383612,23.437869l0,47.70823l-5.443221,0l-2.11325,-5.571297a36.597656,36.597656 0 0 1 -21.036448,6.98013a21.228561,21.228561 0 0 1 -24.430456,-22.4773c0,-11.84701 6.563884,-20.65222 24.846702,-21.772883l18.410894,-1.120663l0,-3.906311c0,-10.182025 -3.618141,-14.632658 -16.617833,-14.632658zm-2.497478,27.216104c-9.925873,0.960568 -14.248431,6.147638 -14.248431,14.248431c0,6.275713 1.536909,13.800166 14.792753,13.800166a33.812007,33.812007 0 0 0 18.570989,-5.571297l0,-24.270361l-19.115311,1.793061zm59.55524,15.785341a8.068774,8.068774 0 0 0 -2.657573,5.123031c0,3.522084 1.697004,5.058994 5.315145,5.443221l23.69402,2.817667c13.127768,1.408834 19.14733,6.563884 19.14733,18.699065c0,17.034079 -17.034079,23.69402 -36.277466,23.69402c-19.531557,0 -31.250492,-5.699372 -31.250492,-21.036448a19.499538,19.499538 0 0 1 14.376507,-18.410894l0,-0.160095a10.278082,10.278082 0 0 1 -4.482652,-9.189438a12.551427,12.551427 0 0 1 5.315145,-9.509627a23.886134,23.886134 0 0 1 -11.174612,-22.861528c0,-14.376507 6.147638,-26.255536 27.216104,-26.255536a43.545767,43.545767 0 0 1 11.174612,1.408834l23.69402,0l0,5.283126l-11.686915,3.361989a29.073203,29.073203 0 0 1 4.034387,16.169568c0,14.376507 -6.147638,26.255536 -27.216104,26.255536a44.730468,44.730468 0 0 1 -9.221457,-0.864512l0,0.032019zm4.066406,18.82714c-9.221457,2.081232 -17.034079,6.403789 -17.034079,15.369094c0,10.310101 7.812623,13.223825 22.18913,13.223825c13.928242,0 27.05601,-3.490065 27.05601,-15.369094c0,-7.076187 -3.361989,-9.893854 -11.84701,-10.886442l-20.36405,-2.337383zm23.277774,-44.218165c0,-9.221457 -1.793061,-17.738496 -18.122724,-17.738496c-16.329663,0 -18.154743,8.51704 -18.154743,17.738496c0,9.221457 1.82508,17.706477 18.154743,17.706477c16.329663,0 18.122724,-8.51704 18.122724,-17.738496l0,0.032019zm52.415015,-26.255536c23.69402,0 26.511688,16.201587 26.511688,36.277466l0,4.482652l-46.043245,0c0.576341,12.135181 3.778236,23.149698 19.531557,23.149698a53.311546,53.311546 0 0 0 23.021622,-3.906311l0,8.356945a56.51344,56.51344 0 0 1 -23.021622,4.194482c-23.565944,0 -29.297336,-16.169568 -29.297336,-36.277466s5.731391,-36.277466 29.297336,-36.277466zm-19.531557,32.787401l36.277466,0c0,-12.391332 -0.704417,-24.110267 -16.745909,-24.110267c-16.201587,0 -19.115311,11.526821 -19.531557,24.110267zm83.281279,-1.664985c19.819728,1.82508 24.558532,8.51704 24.558532,19.947804c0,10.758366 -6.820036,21.484713 -28.048597,21.484713a68.744678,68.744678 0 0 1 -20.780296,-3.490065l0,-8.356945a61.604453,61.604453 0 0 0 20.940391,3.201895c14.504583,0 18.410894,-6.147638 18.410894,-12.711522c0,-6.403789 -1.953156,-10.886442 -15.753322,-11.975086c-20.235974,-1.82508 -24.430456,-8.965305 -24.430456,-18.570989c0,-9.925873 6.403789,-20.65222 26.095441,-20.65222a52.094826,52.094826 0 0 1 20.075879,3.522084l0,8.324926a57.602084,57.602084 0 0 0 -20.203955,-3.201895c-13.832185,0 -16.745909,5.187069 -16.745909,12.039124c0,6.0836 2.497478,9.285494 15.881397,10.438177zm-665.577837,-21.100486l-34.164216,0a1.600947,1.600947 0 0 0 -1.600947,1.600947l0,16.71389a1.600947,1.600947 0 0 0 1.600947,1.600947l13.319882,0l0,20.780296a40.568005,40.568005 0 0 1 -11.23865,1.024606c-9.765779,0 -23.40585,-3.586122 -23.40585,-33.555856s14.184393,-33.940083 27.536294,-33.940083a54.112019,54.112019 0 0 1 19.659633,3.009781a1.600947,1.600947 0 0 0 1.921137,-1.600947l3.842274,-16.137549a1.50489,1.50489 0 0 0 -0.640379,-1.248739a54.912493,54.912493 0 0 0 -28.913109,-5.283126c-22.893547,0 -46.267377,9.669722 -46.267377,56.353346s26.799858,53.631735 49.373215,53.631735a55.584891,55.584891 0 0 0 30.033772,-8.004737a1.376815,1.376815 0 0 0 0.512303,-1.21672l0,-52.126845a1.600947,1.600947 0 0 0 -1.600947,-1.600947l0.032019,0zm177.545057,-41.432517a1.600947,1.600947 0 0 0 -1.600947,-1.600947l-19.275406,0a1.600947,1.600947 0 0 0 -1.600947,1.600947l0,37.173997l-29.969734,0l0,-37.173997a1.600947,1.600947 0 0 0 -1.600947,-1.600947l-19.211368,0a1.600947,1.600947 0 0 0 -1.600947,1.600947l0,100.699586a1.600947,1.600947 0 0 0 1.600947,1.600947l19.211368,0a1.600947,1.600947 0 0 0 1.600947,-1.600947l0,-43.065483l30.001753,0l-0.064038,43.065483a1.600947,1.600947 0 0 0 1.600947,1.600947l19.307425,0a1.600947,1.600947 0 0 0 1.600947,-1.600947l0,-100.699586zm-140.531155,13.191806a12.423351,12.423351 0 1 0 -12.391332,12.551427a12.487389,12.487389 0 0 0 12.391332,-12.551427zm-1.344796,66.215181l0,-46.459491a1.600947,1.600947 0 0 0 -1.600947,-1.600947l-19.211368,0a1.82508,1.82508 0 0 0 -1.632966,1.793061l0,66.599408c0,1.921137 1.21672,2.529497 2.785648,2.529497l17.290231,0c1.921137,0 2.369402,-0.960568 2.369402,-2.561516l0,-20.300012zm216.576153,-47.932363l-19.115311,0a1.600947,1.600947 0 0 0 -1.600947,1.600947l0,49.373215a21.548751,21.548751 0 0 1 -11.750953,3.522084c-6.884073,0 -8.709153,-3.105838 -8.709153,-9.829817l0,-43.033464a1.600947,1.600947 0 0 0 -1.600947,-1.600947l-19.339444,0a1.600947,1.600947 0 0 0 -1.600947,1.600947l0,46.299396c0,20.04386 11.142593,24.942759 26.511688,24.942759a44.762487,44.762487 0 0 0 22.733452,-6.948111a40.792138,40.792138 0 0 0 0.704417,4.098425a1.664985,1.664985 0 0 0 1.408834,0.864512l12.327294,-0.064038a1.600947,1.600947 0 0 0 1.600947,-1.600947l0,-67.624015a1.600947,1.600947 0 0 0 -1.600947,-1.600947l0.032019,0zm53.215489,-2.241326a35.893239,35.893239 0 0 0 -18.21878,4.802842l0,-34.03614a1.600947,1.600947 0 0 0 -1.600947,-1.600947l-19.275406,0a1.600947,1.600947 0 0 0 -1.600947,1.600947l0,100.699586a1.600947,1.600947 0 0 0 1.600947,1.600947l13.38392,0a1.600947,1.600947 0 0 0 1.408834,-0.864512a31.154435,31.154435 0 0 0 0.800474,-4.610728a34.580462,34.580462 0 0 0 22.829509,7.460414c17.546383,0 27.600332,-8.901267 27.600332,-39.959645s-16.073511,-35.060746 -26.927934,-35.060746l0,-0.032019zm-7.524452,56.705554a22.925566,22.925566 0 0 1 -11.110574,-3.201895l0,-31.890871a25.391024,25.391024 0 0 1 9.861835,-3.201895c6.884073,-0.60836 13.511995,1.472872 13.511995,17.866572c0,17.290231 -3.009781,20.716258 -12.263256,20.460107l0,-0.032019zm-207.322677,-54.624322l-14.408526,0l-0.064038,-19.051273c0,-0.736436 -0.352208,-1.088644 -1.184701,-1.088644l-19.691652,0c-0.768455,0 -1.152682,0.320189 -1.152682,1.056625l0,19.691652l-10.566252,2.561516a1.600947,1.600947 0 0 0 -1.120663,1.536909l0,12.391332a1.600947,1.600947 0 0 0 1.600947,1.600947l10.085968,0l0,29.77762c0,22.157111 15.49717,24.334399 25.999384,24.334399a44.026051,44.026051 0 0 0 11.430764,-1.921137a1.472872,1.472872 0 0 0 0.89653,-1.408834l0.032019,-13.640071a1.600947,1.600947 0 0 0 -1.600947,-1.600947c-0.832493,0 -3.009781,0.320189 -5.219088,0.320189c-7.076187,0 -9.477608,-3.265933 -9.477608,-7.556471l0,-28.304749l14.440545,0a1.600947,1.600947 0 0 0 1.600947,-1.600947l0,-15.49717a1.600947,1.600947 0 0 0 -1.600947,-1.600947z"/>
  </g>
  <g stroke="null" id="svg_28">
   <g id="svg_26" fill="#000000" transform="matrix(0.11014683689200848,0,0,-0.11014683689200848,-653.8897561443227,-540.8984146522182) ">
    <path stroke="null" id="svg_27" d="m6932.168457,-5040.746231c-305,-68 -555,-237 -727,-493c-301,-451 -241,-1056 143,-1442c115,-116 290,-228 422,-271c49,-16 55,-16 77,-1c24,16 25,20 25,135l0,118l-88,-5c-103,-5 -183,13 -231,54c-17,14 -50,62 -73,106c-38,74 -66,108 -144,177c-26,23 -27,24 -9,37c43,32 130,1 185,-65c96,-117 133,-148 188,-160c49,-10 94,-6 162,14c9,3 21,24 27,48c6,23 22,58 35,77l24,35l-81,16c-170,35 -275,96 -344,200c-64,96 -85,179 -86,334c0,146 16,206 79,288c28,36 31,47 23,68c-15,36 -11,188 5,234c13,34 20,40 47,43c45,5 129,-24 214,-72l73,-42l64,15c91,21 364,20 446,0l62,-16l58,35c77,46 175,82 224,82c39,0 39,-1 55,-52c17,-59 20,-166 5,-217c-8,-30 -6,-39 16,-68c109,-144 121,-383 29,-579c-62,-129 -193,-219 -369,-252l-84,-16l31,-55l32,-56l3,-223l4,-223l25,-16c23,-15 28,-15 76,2c80,27 217,101 292,158c446,334 590,933 343,1431c-145,293 -419,518 -733,602c-137,36 -395,44 -525,15z"/>
   </g>
  </g>
 </g>
</svg>